<mxfile host="65bd71144e">
    <diagram id="pCJ0aDSLDDRM6cMlj_6n" name="Page-1">
        <mxGraphModel dx="754" dy="1599" grid="1" gridSize="10" guides="1" tooltips="1" connect="1" arrows="1" fold="1" page="1" pageScale="1" pageWidth="827" pageHeight="1169" math="0" shadow="0">
            <root>
                <mxCell id="0"/>
                <mxCell id="1" parent="0"/>
                <mxCell id="23" style="edgeStyle=orthogonalEdgeStyle;rounded=0;orthogonalLoop=1;jettySize=auto;html=1;exitX=0.5;exitY=1;exitDx=0;exitDy=0;entryX=0.592;entryY=-0.031;entryDx=0;entryDy=0;entryPerimeter=0;" parent="1" edge="1">
                    <mxGeometry relative="1" as="geometry">
                        <mxPoint x="130" y="-840" as="sourcePoint"/>
                        <mxPoint x="133.04000000000008" y="-801.55" as="targetPoint"/>
                    </mxGeometry>
                </mxCell>
                <mxCell id="3" value="ramdom of number&lt;br&gt;from 0 to 100 (N)" style="rounded=0;whiteSpace=wrap;html=1;" parent="1" vertex="1">
                    <mxGeometry x="80" y="-900" width="120" height="60" as="geometry"/>
                </mxCell>
                <mxCell id="5" value="Start&lt;br&gt;Guessing Game" style="rounded=1;whiteSpace=wrap;html=1;" parent="1" vertex="1">
                    <mxGeometry x="80" y="-1120" width="120" height="60" as="geometry"/>
                </mxCell>
                <mxCell id="10" value="" style="edgeStyle=orthogonalEdgeStyle;rounded=0;orthogonalLoop=1;jettySize=auto;html=1;entryX=0.5;entryY=0;entryDx=0;entryDy=0;exitX=0.5;exitY=1;exitDx=0;exitDy=0;" parent="1" source="5" edge="1">
                    <mxGeometry relative="1" as="geometry">
                        <mxPoint x="140" y="-1020" as="targetPoint"/>
                    </mxGeometry>
                </mxCell>
                <mxCell id="9" style="edgeStyle=orthogonalEdgeStyle;rounded=0;orthogonalLoop=1;jettySize=auto;html=1;exitX=0.5;exitY=1;exitDx=0;exitDy=0;entryX=0.5;entryY=0;entryDx=0;entryDy=0;" parent="1" edge="1">
                    <mxGeometry relative="1" as="geometry">
                        <mxPoint x="140" y="-942" as="sourcePoint"/>
                        <mxPoint x="140" y="-902" as="targetPoint"/>
                        <Array as="points">
                            <mxPoint x="140" y="-912"/>
                            <mxPoint x="140" y="-912"/>
                        </Array>
                    </mxGeometry>
                </mxCell>
                <mxCell id="11" value="Yes" style="text;html=1;strokeColor=none;fillColor=none;align=center;verticalAlign=middle;whiteSpace=wrap;rounded=0;" parent="1" vertex="1">
                    <mxGeometry x="80" y="-931" width="40" height="20" as="geometry"/>
                </mxCell>
                <mxCell id="14" value="No" style="text;html=1;strokeColor=none;fillColor=none;align=center;verticalAlign=middle;whiteSpace=wrap;rounded=0;" parent="1" vertex="1">
                    <mxGeometry x="179" y="-1004" width="40" height="20" as="geometry"/>
                </mxCell>
                <mxCell id="16" style="edgeStyle=orthogonalEdgeStyle;rounded=0;orthogonalLoop=1;jettySize=auto;html=1;exitX=1;exitY=0.5;exitDx=0;exitDy=0;entryX=0.5;entryY=0;entryDx=0;entryDy=0;" parent="1" source="15" target="18" edge="1">
                    <mxGeometry relative="1" as="geometry">
                        <mxPoint x="520" y="-740" as="targetPoint"/>
                    </mxGeometry>
                </mxCell>
                <mxCell id="15" value="Play" style="rhombus;whiteSpace=wrap;html=1;" parent="1" vertex="1">
                    <mxGeometry x="100" y="-1020" width="80" height="80" as="geometry"/>
                </mxCell>
                <mxCell id="18" value="End&lt;br&gt;Guessing Game." style="rounded=1;whiteSpace=wrap;html=1;" parent="1" vertex="1">
                    <mxGeometry x="460" y="-527" width="120" height="60" as="geometry"/>
                </mxCell>
                <mxCell id="19" value="display&lt;br&gt;&quot;Let's play with me" style="text;html=1;strokeColor=none;fillColor=none;align=center;verticalAlign=middle;whiteSpace=wrap;rounded=0;" parent="1" vertex="1">
                    <mxGeometry y="-978" width="120" height="20" as="geometry"/>
                </mxCell>
                <mxCell id="21" value="input&lt;br&gt;number (input N)" style="shape=parallelogram;perimeter=parallelogramPerimeter;whiteSpace=wrap;html=1;fixedSize=1;" parent="1" vertex="1">
                    <mxGeometry x="72" y="-800" width="120" height="50" as="geometry"/>
                </mxCell>
                <mxCell id="27" value="" style="endArrow=classic;html=1;exitX=0.5;exitY=1;exitDx=0;exitDy=0;entryX=0.5;entryY=0;entryDx=0;entryDy=0;" parent="1" edge="1">
                    <mxGeometry width="50" height="50" relative="1" as="geometry">
                        <mxPoint x="132" y="-750" as="sourcePoint"/>
                        <mxPoint x="132" y="-710" as="targetPoint"/>
                        <Array as="points"/>
                    </mxGeometry>
                </mxCell>
                <mxCell id="28" value="input N &amp;gt; N, go to #1&lt;br&gt;input N &amp;lt; N, go to #2&lt;br&gt;until input # = N" style="shape=hexagon;perimeter=hexagonPerimeter2;whiteSpace=wrap;html=1;fixedSize=1;" parent="1" vertex="1">
                    <mxGeometry x="72" y="-710" width="120" height="80" as="geometry"/>
                </mxCell>
                <mxCell id="42" style="edgeStyle=orthogonalEdgeStyle;rounded=0;orthogonalLoop=1;jettySize=auto;html=1;exitX=1;exitY=0.5;exitDx=0;exitDy=0;entryX=1;entryY=0.5;entryDx=0;entryDy=0;" parent="1" source="29" target="21" edge="1">
                    <mxGeometry relative="1" as="geometry">
                        <mxPoint x="400" y="-790" as="targetPoint"/>
                        <mxPoint x="350" y="-609" as="sourcePoint"/>
                        <Array as="points">
                            <mxPoint x="400" y="-589"/>
                            <mxPoint x="400" y="-775"/>
                        </Array>
                    </mxGeometry>
                </mxCell>
                <mxCell id="29" value="#1: “My number is higher than N, guess again higher!”;" style="rounded=0;whiteSpace=wrap;html=1;" parent="1" vertex="1">
                    <mxGeometry x="50" y="-599" width="300" height="20" as="geometry"/>
                </mxCell>
                <mxCell id="30" value="#2: “My number is lower than N, guess again lower!”;" style="rounded=0;whiteSpace=wrap;html=1;" parent="1" vertex="1">
                    <mxGeometry x="50" y="-552" width="300" height="20" as="geometry"/>
                </mxCell>
                <mxCell id="31" value="" style="endArrow=none;html=1;" parent="1" edge="1">
                    <mxGeometry width="50" height="50" relative="1" as="geometry">
                        <mxPoint x="133" y="-599" as="sourcePoint"/>
                        <mxPoint x="133" y="-630" as="targetPoint"/>
                    </mxGeometry>
                </mxCell>
                <mxCell id="35" value="" style="endArrow=none;html=1;" parent="1" edge="1">
                    <mxGeometry width="50" height="50" relative="1" as="geometry">
                        <mxPoint x="135" y="-550" as="sourcePoint"/>
                        <mxPoint x="135" y="-580" as="targetPoint"/>
                    </mxGeometry>
                </mxCell>
                <mxCell id="36" value="input N = N, &quot;It is a correct number&quot;" style="rounded=0;whiteSpace=wrap;html=1;" parent="1" vertex="1">
                    <mxGeometry x="50" y="-507" width="300" height="20" as="geometry"/>
                </mxCell>
                <mxCell id="37" value="" style="endArrow=none;html=1;" parent="1" edge="1">
                    <mxGeometry width="50" height="50" relative="1" as="geometry">
                        <mxPoint x="136" y="-505" as="sourcePoint"/>
                        <mxPoint x="136" y="-531" as="targetPoint"/>
                    </mxGeometry>
                </mxCell>
                <mxCell id="41" value="" style="endArrow=classic;html=1;exitX=1;exitY=0.5;exitDx=0;exitDy=0;entryX=0;entryY=0.5;entryDx=0;entryDy=0;" parent="1" source="36" target="18" edge="1">
                    <mxGeometry width="50" height="50" relative="1" as="geometry">
                        <mxPoint x="389" y="-457" as="sourcePoint"/>
                        <mxPoint x="439" y="-507" as="targetPoint"/>
                    </mxGeometry>
                </mxCell>
                <mxCell id="43" value="" style="endArrow=classic;html=1;exitX=1;exitY=0.5;exitDx=0;exitDy=0;" parent="1" source="30" edge="1">
                    <mxGeometry width="50" height="50" relative="1" as="geometry">
                        <mxPoint x="389" y="-529" as="sourcePoint"/>
                        <mxPoint x="400" y="-590" as="targetPoint"/>
                        <Array as="points">
                            <mxPoint x="400" y="-542"/>
                        </Array>
                    </mxGeometry>
                </mxCell>
            </root>
        </mxGraphModel>
    </diagram>
</mxfile>